<svg width="74" height="32" viewBox="0 0 74 32" fill="none" xmlns="http://www.w3.org/2000/svg">
<path d="M14.8987 0.363538C12.2449 -0.0610697 2.38887 -0.00459749 0.364765 0.0117703C0.159203 0.0134325 0 0.180544 0 0.386113V5.82604C0 6.03315 0.166389 6.20104 0.373495 6.20104H10.978C12.4591 6.20104 14.8987 6.67827 16.2056 7.94358C17.7594 9.44789 18.5338 11.3481 18.4709 13.3454C18.4203 14.952 17.7923 16.6709 16.2056 17.7739C14.3331 19.0756 11.657 18.767 10.5812 18.5711C10.3397 18.5271 10.1067 18.7107 10.1067 18.9563V24.3841C10.1067 24.5912 10.2804 24.7593 10.4875 24.7562C22.0177 24.5823 24.8312 16.5127 24.8312 12.7205C24.8312 4.35634 17.861 0.837506 14.8987 0.363538Z" fill="url(#paint0_linear_28176_9417)"/>
<path d="M11.3113 9.16333H0.375C0.167893 9.16333 0 9.33122 0 9.53833V29.9579C0 30.6085 0.771681 30.9506 1.25371 30.5136L5.50408 26.6608C5.66092 26.5186 5.75037 26.3168 5.75037 26.1051V16.3342C5.75037 16.1271 5.91827 15.9592 6.12537 15.9592H11.2126C12.2713 15.9592 13.2679 15.4596 13.9013 14.6114L13.9391 14.5608C14.8643 13.3219 14.8395 11.6155 13.8787 10.404C13.2571 9.62026 12.3116 9.16333 11.3113 9.16333Z" fill="url(#paint1_linear_28176_9417)"/>
<g clip-path="url(#clip0_28176_9417)">
<path d="M23.7295 27.8182V21.158H26.5307C27.2685 21.158 27.9084 21.3572 28.4504 21.7555C28.9989 22.1538 29.2731 22.7545 29.2731 23.5576C29.2731 24.3542 28.9826 24.9419 28.4014 25.3206C27.8203 25.6928 27.1706 25.8789 26.4523 25.8789H25.5121V27.8182H23.7295ZM26.4719 22.5586H25.5121V24.4783H26.4915C26.7658 24.4783 26.991 24.3902 27.1673 24.2139C27.3436 24.0376 27.4318 23.8188 27.4318 23.5576C27.4318 23.2638 27.3469 23.0255 27.1771 22.8426C27.0073 22.6533 26.7723 22.5586 26.4719 22.5586ZM30.0568 27.8182V21.158H34.4741L34.6406 22.5586H31.8394V23.7731H33.8865L34.053 25.1737H31.8394V26.4176H34.7679L34.9344 27.8182H30.0568ZM40.3986 27.8182H35.619V21.158H37.4016V26.4176H40.2321L40.3986 27.8182ZM45.7695 27.8182H40.9898V21.158H42.7724V26.4176H45.603L45.7695 27.8182ZM46.3607 27.8182V21.158H50.778L50.9445 22.5586H48.1432V23.7731H50.1903L50.3568 25.1737H48.1432V26.4176H51.0718L51.2383 27.8182H46.3607ZM53.6368 25.1933C53.1928 24.9713 52.7489 24.684 52.3048 24.3314C51.8608 23.9723 51.6388 23.5087 51.6388 22.9406C51.6453 22.3921 51.8706 21.9383 52.3146 21.5792C52.7586 21.2135 53.3593 21.0307 54.1168 21.0307C54.4498 21.0307 54.7926 21.0796 55.1452 21.1776C55.5043 21.269 55.8145 21.4029 56.0756 21.5792L55.5467 22.7839C55.1941 22.6598 54.9264 22.5815 54.7436 22.5488C54.5607 22.5096 54.3584 22.49 54.1364 22.49C53.9339 22.49 53.774 22.539 53.6564 22.637C53.5389 22.7284 53.4801 22.8361 53.4801 22.9602C53.4801 23.1038 53.578 23.2311 53.774 23.3422C53.9763 23.4466 54.2147 23.5707 54.489 23.7143C54.959 23.9559 55.4129 24.2596 55.8504 24.6252C56.2878 24.9909 56.5066 25.4447 56.5066 25.9866C56.5066 26.5482 56.2683 27.015 55.7916 27.3872C55.3215 27.7594 54.675 27.9455 53.8524 27.9455C53.5127 27.9455 53.1275 27.8966 52.6966 27.7986C52.2722 27.6941 51.9294 27.5635 51.6681 27.4068L52.2558 26.065C52.4256 26.1695 52.6639 26.2674 52.9708 26.3588C53.2842 26.4437 53.5618 26.4862 53.8033 26.4862C54.0842 26.4862 54.2963 26.4306 54.4399 26.3197C54.5902 26.2086 54.6652 26.0911 54.6652 25.9671C54.6652 25.8495 54.5575 25.7222 54.342 25.5851C54.1266 25.4479 53.8915 25.3174 53.6368 25.1933ZM61.9834 23.2932L61.3468 25.1051H62.6495L61.9834 23.2932ZM62.9041 21.158L65.3919 27.6419L63.6386 27.8182L63.1588 26.5057H60.857L60.3967 27.8182H58.6239L61.1215 21.158H62.9041ZM65.9789 27.8182V21.158H67.7615V27.8182H65.9789Z" fill="#504E4A"/>
</g>
<defs>
<linearGradient id="paint0_linear_28176_9417" x1="23.6985" y1="-0.507727" x2="-2.69754" y2="54.754" gradientUnits="userSpaceOnUse">
<stop stop-color="#FFD221"/>
<stop offset="0.141125" stop-color="#FFC45D"/>
<stop offset="0.212565" stop-color="#FEB985"/>
<stop offset="0.285606" stop-color="#FCA985"/>
<stop offset="0.369757" stop-color="#FA9A86"/>
<stop offset="0.469133" stop-color="#EFB2AA"/>
<stop offset="0.550721" stop-color="#FE8BBA"/>
<stop offset="0.665135" stop-color="#229CFF"/>
<stop offset="0.764257" stop-color="#6DB9E2"/>
<stop offset="0.869976" stop-color="#50BDF1"/>
<stop offset="1" stop-color="#18B9FF"/>
</linearGradient>
<linearGradient id="paint1_linear_28176_9417" x1="26.8351" y1="0.609916" x2="-12.5048" y2="51.0565" gradientUnits="userSpaceOnUse">
<stop stop-color="#FFD221"/>
<stop offset="0.0821279" stop-color="#FFC45D"/>
<stop offset="0.147385" stop-color="#FEB985"/>
<stop offset="0.222908" stop-color="#FCA985"/>
<stop offset="0.269125" stop-color="#FA9A86"/>
<stop offset="0.314415" stop-color="#F5A495"/>
<stop offset="0.351408" stop-color="#F2AB9E"/>
<stop offset="0.381156" stop-color="#EFB2AA"/>
<stop offset="0.407845" stop-color="#DAB0B2"/>
<stop offset="0.448317" stop-color="#D0B2BF"/>
<stop offset="0.476894" stop-color="#C7B5CB"/>
<stop offset="0.498627" stop-color="#C0B7D4"/>
<stop offset="0.522113" stop-color="#B8B5D3"/>
<stop offset="0.574693" stop-color="#8EB2D3"/>
<stop offset="0.608407" stop-color="#83B5D8"/>
<stop offset="0.667147" stop-color="#6DB9E2"/>
<stop offset="0.684646" stop-color="#50BDF1"/>
<stop offset="0.734353" stop-color="#18B9FF"/>
</linearGradient>
<clipPath id="clip0_28176_9417">
<rect width="46.4198" height="12.0791" fill="white" transform="translate(23.0439 17.7855)"/>
</clipPath>
</defs>
</svg>
