<svg width="199" height="254" viewBox="0 0 199 254" fill="none" xmlns="http://www.w3.org/2000/svg">
<path d="M119.19 2.9083C97.9591 -0.488557 19.111 -0.0367799 2.91812 0.094162C1.27362 0.10746 0 1.44435 0 3.0889V46.6083C0 48.2652 1.33111 49.6083 2.98796 49.6083H87.8239C99.6731 49.6083 119.19 53.4262 129.645 63.5486C142.075 75.5831 148.271 90.7852 147.767 106.764C147.362 119.616 142.338 133.367 129.645 142.191C114.665 152.605 93.2563 150.136 84.6499 148.569C82.7174 148.217 80.8537 149.686 80.8537 151.65V195.073C80.8537 196.729 82.2435 198.075 83.9001 198.05C176.142 196.659 198.649 132.102 198.649 101.764C198.649 34.8507 142.888 6.70005 119.19 2.9083Z" fill="url(#paint0_linear_137_27)"/>
<path d="M90.4901 73.3066H3C1.34315 73.3066 0 74.6498 0 76.3066V239.664C0 244.868 6.17344 247.605 10.0297 244.109L44.0327 213.286C45.2873 212.149 46.003 210.534 46.003 208.841V130.674C46.003 129.017 47.3461 127.674 49.003 127.674H89.7006C98.1701 127.674 106.143 123.677 111.211 116.891L111.513 116.486C118.914 106.576 118.716 92.9239 111.03 83.2323C106.057 76.9621 98.4928 73.3066 90.4901 73.3066Z" fill="url(#paint1_linear_137_27)"/>
<defs>
<linearGradient id="paint0_linear_137_27" x1="189.588" y1="-4.06182" x2="-21.5803" y2="438.032" gradientUnits="userSpaceOnUse">
<stop stop-color="#FFD221"/>
<stop offset="0.141125" stop-color="#FFC45D"/>
<stop offset="0.212565" stop-color="#FEB985"/>
<stop offset="0.285606" stop-color="#FCA985"/>
<stop offset="0.369757" stop-color="#FA9A86"/>
<stop offset="0.469133" stop-color="#EFB2AA"/>
<stop offset="0.550721" stop-color="#FE8BBA"/>
<stop offset="0.665135" stop-color="#229CFF"/>
<stop offset="0.764257" stop-color="#6DB9E2"/>
<stop offset="0.869976" stop-color="#50BDF1"/>
<stop offset="1" stop-color="#18B9FF"/>
</linearGradient>
<linearGradient id="paint1_linear_137_27" x1="214.681" y1="4.87933" x2="-100.039" y2="408.452" gradientUnits="userSpaceOnUse">
<stop stop-color="#FFD221"/>
<stop offset="0.0821279" stop-color="#FFC45D"/>
<stop offset="0.147385" stop-color="#FEB985"/>
<stop offset="0.222908" stop-color="#FCA985"/>
<stop offset="0.269125" stop-color="#FA9A86"/>
<stop offset="0.314415" stop-color="#F5A495"/>
<stop offset="0.351408" stop-color="#F2AB9E"/>
<stop offset="0.381156" stop-color="#EFB2AA"/>
<stop offset="0.407845" stop-color="#DAB0B2"/>
<stop offset="0.448317" stop-color="#D0B2BF"/>
<stop offset="0.476894" stop-color="#C7B5CB"/>
<stop offset="0.498627" stop-color="#C0B7D4"/>
<stop offset="0.522113" stop-color="#B8B5D3"/>
<stop offset="0.574693" stop-color="#8EB2D3"/>
<stop offset="0.608407" stop-color="#83B5D8"/>
<stop offset="0.667147" stop-color="#6DB9E2"/>
<stop offset="0.684646" stop-color="#50BDF1"/>
<stop offset="0.734353" stop-color="#18B9FF"/>
</linearGradient>
</defs>
</svg>
